<svg width="43" height="39" viewBox="0 0 43 39" fill="none" xmlns="http://www.w3.org/2000/svg">
<path fill-rule="evenodd" clip-rule="evenodd" d="M31.3178 0C37.9778 0 42.9998 5.434 42.9998 12.64V26.376C42.9998 30.064 41.6958 33.396 39.3258 35.76C37.1998 37.878 34.4418 39 31.3498 39H11.6438C8.5578 39 5.8018 37.88 3.6738 35.76C1.3038 33.396 -0.000200272 30.064 -0.000200272 26.376V12.64C-0.000200272 5.434 5.0218 0 11.6818 0H31.3178ZM31.3178 3H11.6818C6.6518 3 2.9998 7.054 2.9998 12.64V26.376C2.9998 29.262 3.9918 31.84 5.7918 33.634C7.3438 35.184 9.3698 36 11.6498 36H31.3178C31.3218 35.996 31.3378 36 31.3498 36C33.6318 36 35.6558 35.184 37.2078 33.634C39.0098 31.84 39.9998 29.262 39.9998 26.376V12.64C39.9998 7.054 36.3478 3 31.3178 3ZM34.4698 12.2576C34.9918 12.8996 34.8938 13.8436 34.2518 14.3676L25.3638 21.5916C24.2398 22.4836 22.8958 22.9296 21.5538 22.9296C20.2158 22.9296 18.8818 22.4876 17.7658 21.6036L8.7958 14.3716C8.1498 13.8516 8.0498 12.9056 8.5678 12.2616C9.0898 11.6196 10.0338 11.5176 10.6778 12.0356L19.6398 19.2596C20.7658 20.1516 22.3518 20.1516 23.4858 19.2516L32.3578 12.0396C33.0018 11.5136 33.9458 11.6136 34.4698 12.2576Z" fill="black"/>
</svg>
