<svg width="39" height="39" viewBox="0 0 39 39" fill="none" xmlns="http://www.w3.org/2000/svg">
<path fill-rule="evenodd" clip-rule="evenodd" d="M17.6098 23.6356L24.9238 35.5016C25.2438 36.0216 25.7438 36.0156 25.9458 35.9876C26.1478 35.9596 26.6338 35.8356 26.8098 35.2456L35.9558 4.3556C36.1158 3.8096 35.8218 3.4376 35.6898 3.3056C35.5618 3.1736 35.1958 2.8916 34.6658 3.0416L3.7538 12.0936C3.1678 12.2656 3.0398 12.7576 3.0118 12.9596C2.9838 13.1656 2.9758 13.6756 3.4938 14.0016L15.4958 21.5076L26.0998 10.7916C26.6818 10.2036 27.6318 10.1976 28.2218 10.7796C28.8118 11.3616 28.8158 12.3136 28.2338 12.9016L17.6098 23.6356ZM25.7898 38.9996C24.3978 38.9996 23.1218 38.2916 22.3698 37.0756L14.6158 24.4936L1.9038 16.5436C0.5338 15.6856 -0.1822 14.1576 0.0398003 12.5516C0.2598 10.9456 1.3618 9.6696 2.9098 9.2156L33.8218 0.1636C35.2438 -0.2524 36.7678 0.1416 37.8158 1.1856C38.8638 2.2396 39.2538 3.7796 38.8298 5.2076L29.6838 36.0956C29.2258 37.6496 27.9458 38.7476 26.3438 38.9616C26.1558 38.9856 25.9738 38.9996 25.7898 38.9996Z" fill="black"/>
</svg>
